<svg width="22" height="22" viewBox="0 0 22 22" fill="none" xmlns="http://www.w3.org/2000/svg">
<path fill-rule="evenodd" clip-rule="evenodd" d="M0.815549 4.49861C4.72629 4.44556 8.28947 2.95347 10.9996 0.527832C13.7097 2.95347 17.2729 4.44556 21.1837 4.49861C21.3257 5.34462 21.3996 6.21371 21.3996 7.10008C21.3996 13.8924 17.0586 19.6708 10.9996 21.8124C4.94061 19.6708 0.599609 13.8924 0.599609 7.10008C0.599609 6.21372 0.673532 5.34462 0.815549 4.49861ZM15.6067 9.10714C15.9972 8.71662 15.9972 8.08345 15.6067 7.69293C15.2162 7.30241 14.583 7.30241 14.1925 7.69293L9.6996 12.1858L7.80671 10.2929C7.41619 9.9024 6.78302 9.9024 6.3925 10.2929C6.00197 10.6835 6.00197 11.3166 6.3925 11.7071L8.9925 14.3071C9.18003 14.4947 9.43439 14.6 9.6996 14.6C9.96482 14.6 10.2192 14.4947 10.4067 14.3071L15.6067 9.10714Z" fill="#2AA8FF"/>
</svg>
