<svg width="60" height="60" viewBox="0 0 60 60" fill="none" xmlns="http://www.w3.org/2000/svg">
<path d="M37.6777 29.1514L29.9999 39.8987L22.3222 29.1514L18.98 30.8226C19.0239 30.9109 19.0405 31.0069 19.0996 31.0896L28.4746 44.2146C28.8262 44.7071 29.3937 45 29.9999 45C30.6061 45 31.1737 44.7071 31.5252 44.2146L40.9002 31.0896C40.9595 31.0069 40.976 30.9109 41.0199 30.8226L37.6777 29.1514Z" fill="#2AA7FF"/>
<path d="M47.318 31.8658L37.0514 26.7419C36.2148 27.7055 35.1986 28.4949 34.0357 29.0533C34.2133 29.3585 34.4486 29.633 34.7881 29.8021L45.6371 35.2166C47.5286 36.1706 48.7499 38.1481 48.7499 40.2556V52.4999H11.2499V40.2556C11.2499 38.1481 12.4713 36.1706 14.3553 35.2203L25.2116 29.8023C25.5513 29.6332 25.7864 29.3587 25.964 29.0534C24.8011 28.4953 23.7849 27.7057 22.9483 26.7421L12.6744 31.8695C9.53038 33.4533 7.49976 36.7456 7.49976 40.2558V54.3751C7.49976 55.4114 8.33844 56.2501 9.37476 56.2501H50.6249C51.6613 56.2501 52.4999 55.4114 52.4999 54.3751V40.2558C52.4999 36.7456 50.4693 33.4533 47.318 31.8658Z" fill="#2AA7FF"/>
<path d="M20.625 45H16.875C15.8387 45 15 44.1613 15 43.125C15 42.0887 15.8387 41.25 16.875 41.25H20.625C21.6613 41.25 22.5 42.0887 22.5 43.125C22.5 44.1613 21.6613 45 20.625 45Z" fill="#2AA7FF"/>
<path d="M39.3749 14.9364C32.3936 14.5166 29.4633 11.8102 29.4506 11.7994C29.0276 11.3728 28.4289 11.175 27.8246 11.2738C27.2294 11.3709 26.7168 11.748 26.4476 12.2863L25.1182 14.945C24.1696 14.8717 22.7049 14.7088 21.0367 14.3334C20.8964 14.3021 20.7622 14.3242 20.6248 14.3244V18.0759C23.7543 18.734 26.1463 18.7498 26.2498 18.7498C26.9602 18.7498 27.6084 18.3487 27.9269 17.7135L28.8314 15.9045C30.7668 17.016 34.1506 18.4039 39.2703 18.6896C39.3067 18.6909 39.3386 18.6739 39.3748 18.6731L39.3749 14.9364Z" fill="#2AA7FF"/>
<path d="M30 31.875C23.7964 31.875 18.75 26.8286 18.75 20.625V15C18.75 8.79638 23.7964 3.75 30 3.75C36.2036 3.75 41.25 8.79638 41.25 15V20.625C41.25 26.8286 36.2036 31.875 30 31.875ZM30 7.5C25.8636 7.5 22.5 10.8636 22.5 15V20.625C22.5 24.7614 25.8636 28.125 30 28.125C34.1364 28.125 37.5 24.7614 37.5 20.625V15C37.5 10.8636 34.1364 7.5 30 7.5Z" fill="#2AA7FF"/>
</svg>
