<svg width="82" height="80" viewBox="0 0 82 80" fill="none" xmlns="http://www.w3.org/2000/svg">
<path d="M15.6875 72.5C15.6875 73.8818 16.8197 75 18.2188 75C19.6178 75 20.75 73.8818 20.75 72.5V67.5H15.6875V72.5Z" fill="#2AA7FF"/>
<path d="M61.25 72.5C61.25 73.8818 62.3822 75 63.7812 75C65.1803 75 66.3125 73.8818 66.3125 72.5V67.5H61.25V72.5Z" fill="#2AA7FF"/>
<path d="M73.9062 45H8.09375V50H73.9062V45Z" fill="#2AA7FF"/>
<path d="M68.8438 70H13.1562C8.9688 70 5.5625 66.6357 5.5625 62.5V12.5C5.5625 8.36425 8.9688 5 13.1562 5H68.8438C73.0312 5 76.4375 8.36425 76.4375 12.5V62.5C76.4375 66.6357 73.0312 70 68.8438 70ZM13.1562 10C11.7595 10 10.625 11.1205 10.625 12.5V62.5C10.625 63.8795 11.7595 65 13.1562 65H68.8438C70.2405 65 71.375 63.8795 71.375 62.5V12.5C71.375 11.1205 70.2405 10 68.8438 10H13.1562Z" fill="#2AA7FF"/>
<path d="M63.7812 60H53.6562C52.2572 60 51.125 58.8817 51.125 57.5C51.125 56.1183 52.2572 55 53.6562 55H63.7812C65.1803 55 66.3125 56.1183 66.3125 57.5C66.3125 58.8817 65.1803 60 63.7812 60Z" fill="#2AA7FF"/>
<path d="M18.2188 60C19.6167 60 20.75 58.8807 20.75 57.5C20.75 56.1193 19.6167 55 18.2188 55C16.8208 55 15.6875 56.1193 15.6875 57.5C15.6875 58.8807 16.8208 60 18.2188 60Z" fill="#2AA7FF"/>
<path d="M28.3438 60C29.7417 60 30.875 58.8807 30.875 57.5C30.875 56.1193 29.7417 55 28.3438 55C26.9458 55 25.8125 56.1193 25.8125 57.5C25.8125 58.8807 26.9458 60 28.3438 60Z" fill="#2AA7FF"/>
<path d="M53.6562 40C53.5649 40 53.4732 39.995 53.3793 39.9853C52.3263 39.8705 51.4586 39.121 51.2014 38.1053L48.0374 25.6078L45.8818 30.9275C45.5654 31.7088 44.8733 32.28 44.0403 32.4485C43.1974 32.617 42.3421 32.3605 41.7414 31.7673L39.3932 29.448L35.757 38.4275C35.3467 39.4358 34.3208 40.0438 33.2356 39.995C32.1406 39.9218 31.216 39.1575 30.9517 38.1053L27.5479 24.6628L25.5457 28.6178C25.1156 29.465 24.2406 29.9995 23.2815 29.9995H18.219C16.82 29.9995 15.6877 28.8813 15.6877 27.4995C15.6877 26.1178 16.82 24.9995 18.219 24.9995H21.7167L26.0795 16.3813C26.5541 15.4463 27.5454 14.8993 28.6207 15.014C29.6737 15.1288 30.5414 15.8783 30.7985 16.894L33.9626 29.3915L36.1182 24.0718C36.4346 23.2905 37.1267 22.7193 37.9597 22.5508C38.8051 22.3798 39.6579 22.6388 40.2586 23.232L42.6068 25.5513L46.243 16.5718C46.6533 15.5635 47.6817 14.9628 48.7643 15.0043C49.8594 15.0775 50.784 15.8418 51.0483 16.894L54.4521 30.3365L56.4543 26.3815C56.8843 25.5343 57.7594 24.9998 58.7185 24.9998H63.781C65.18 24.9998 66.3122 26.118 66.3122 27.4998C66.3122 28.8815 65.18 29.9998 63.781 29.9998H60.2833L55.9204 38.618C55.4879 39.47 54.6077 40 53.6562 40Z" fill="#2AA7FF"/>
</svg>
