<svg width="23" height="24" viewBox="0 0 23 24" fill="none" xmlns="http://www.w3.org/2000/svg">
<path d="M19.1667 0.732422H3.83333C1.71624 0.732422 0 2.44387 0 4.55506V19.8456C0 21.9568 1.71624 23.6682 3.83333 23.6682H19.1667C21.2838 23.6682 23 21.9568 23 19.8456V4.55506C23 2.44387 21.2838 0.732422 19.1667 0.732422Z" fill="#2AA8FF"/>
<path fill-rule="evenodd" clip-rule="evenodd" d="M5.86251 8.53397C7.9046 8.50632 9.76517 7.72937 11.1803 6.46631C12.5955 7.72937 14.456 8.50632 16.4981 8.53397C16.5723 8.97447 16.6109 9.427 16.6109 9.88852C16.6109 13.4254 14.3442 16.4343 11.1803 17.5494C8.01647 16.4343 5.74976 13.4254 5.74976 9.88852C5.74976 9.427 5.78836 8.97447 5.86251 8.53397ZM13.6685 11.0159C13.918 10.7672 13.918 10.3637 13.6685 10.115C13.419 9.86616 13.0145 9.86616 12.765 10.115L10.5015 12.3722L9.59561 11.4688C9.34613 11.22 8.94158 11.22 8.69209 11.4688C8.44261 11.7176 8.44261 12.121 8.69209 12.3698L10.0497 13.7236C10.2992 13.9724 10.7038 13.9724 10.9533 13.7236L13.6685 11.0159Z" fill="white"/>
</svg>
